<svg width="300" height="300" viewBox="0 0 300 300" fill="none" xmlns="http://www.w3.org/2000/svg">
<g filter="url(#filter0_i_1469_25)">
<path fill-rule="evenodd" clip-rule="evenodd" d="M206.544 188.313L297.291 279.061C298.542 280.311 300.685 278.882 299.792 277.274C294.969 267.092 290.682 256.731 287.109 246.013L217.977 176.881C203.328 162.232 203.328 138.295 217.977 123.647L287.109 54.5145C290.682 43.7964 294.969 33.4354 299.792 23.2532C300.685 21.6454 298.542 20.2163 297.291 21.4668L206.723 112.035C185.643 133.115 185.465 167.234 206.544 188.313ZM231.036 169.206L277.124 215.294C277.66 215.83 278.553 215.294 278.553 214.579C276.588 206.184 275.159 197.609 273.909 189.213L242.469 157.773C238.182 153.486 238.182 146.698 242.469 142.41L273.909 110.97C274.981 102.396 276.588 93.9999 278.375 85.7826C278.553 84.8894 277.66 84.3535 276.946 85.0681L231.036 130.978C220.497 141.517 220.497 158.666 231.036 169.206ZM21.1179 297.287L111.865 206.54C132.944 185.46 166.885 185.46 188.143 206.718L278.712 297.287C279.962 298.537 278.533 300.681 276.925 299.788C266.743 294.965 256.382 290.677 245.664 287.105L176.532 217.972C161.883 203.324 137.946 203.324 123.298 217.972L54.1657 287.105C43.4475 290.677 33.0866 294.965 22.9043 299.788C21.2966 300.681 19.8675 298.537 21.1179 297.287ZM130.599 231.021L84.5106 277.109C83.9747 277.645 84.5106 278.538 85.2252 278.538C93.6211 276.573 102.196 275.144 110.592 273.893L142.032 242.453C146.319 238.166 153.107 238.166 157.394 242.453L188.834 273.893C197.409 274.965 205.805 276.573 214.022 278.359C214.915 278.538 215.451 277.645 214.737 276.93L168.648 230.842C158.287 220.481 141.317 220.303 130.599 231.021ZM13.066 245.664L82.1983 176.531C96.8465 161.883 96.6679 138.124 82.0197 123.476L12.8874 54.3439C9.31466 43.6257 5.02737 33.2648 0.204192 23.0825C-0.688997 21.4748 1.45465 20.0457 2.70511 21.2961L93.4524 112.043C114.532 133.123 114.532 167.064 93.4524 188.143L2.88372 278.711C1.63326 279.962 -0.510358 278.533 0.3828 276.925C5.20601 266.743 9.49324 256.382 13.066 245.664ZM57.5708 157.608L26.1308 189.048C25.059 197.622 23.4512 206.018 21.6649 214.235C21.4862 215.129 22.3794 215.665 23.094 214.95L69.0035 169.04C79.5431 158.501 79.5431 141.352 69.0035 130.812L22.9153 84.7241C22.3794 84.1882 21.4862 84.724 21.4862 85.4386C23.4512 93.8345 24.8803 102.409 26.1308 110.805L57.7494 142.424C61.8581 146.532 61.8581 153.32 57.5708 157.608ZM279.236 2.71267L188.31 93.6386C167.231 114.718 133.29 114.718 112.211 93.2813L21.6418 2.71264C20.3914 1.46218 21.8205 -0.681445 23.4282 0.211737C33.6105 5.03492 43.9714 9.32218 54.6895 12.8949L123.822 82.0272C138.47 96.6754 162.407 96.6754 177.056 82.0272L246.188 12.8949C256.906 9.32221 267.267 5.03493 277.449 0.21175C279.057 -0.681432 280.486 1.46221 279.236 2.71267ZM169.584 69.1508L215.672 23.0626C216.208 22.5267 215.672 21.6335 214.957 21.6335C206.561 23.5985 197.987 25.0276 189.591 26.278L158.151 57.7181C153.864 62.0053 147.076 62.0053 142.788 57.718L111.348 26.278C102.774 25.2062 94.3778 23.5985 86.1605 21.8121C85.2673 21.6335 84.7314 22.5267 85.446 23.2412L131.534 69.3294C141.895 79.6903 158.866 79.869 169.584 69.1508ZM264.961 137.422L253.528 148.855C252.814 149.569 252.813 150.641 253.528 150.998L264.961 162.431C265.497 162.967 266.39 163.145 267.104 162.431L278.537 150.998C279.073 150.462 279.252 149.569 278.537 148.855L267.104 137.422C266.569 136.886 265.675 136.707 264.961 137.422ZM137.416 264.959L148.848 253.526C149.563 252.812 150.456 252.99 150.992 253.526L162.425 264.959C163.139 265.674 162.961 266.567 162.425 267.103L150.992 278.535C150.277 279.25 149.384 279.071 148.848 278.535L137.416 267.103C136.701 266.745 136.701 265.674 137.416 264.959ZM148.848 21.2896L137.416 32.7223C136.701 33.4369 136.701 34.5087 137.416 34.866L148.848 46.2987C149.384 46.8346 150.278 47.0132 150.992 46.2987L162.425 34.866C162.961 34.33 163.139 33.4369 162.425 32.7223L150.992 21.2896C150.456 20.7537 149.563 20.5751 148.848 21.2896ZM21.3033 148.855L32.736 137.422C33.4506 136.707 34.3437 136.886 34.8797 137.422L46.3124 148.855C47.027 149.569 46.8483 150.462 46.3124 150.998L34.8797 162.431C34.1651 163.145 33.2719 162.967 32.736 162.431L21.3033 150.998C20.5887 150.641 20.5888 149.569 21.3033 148.855ZM148.911 137.442L137.478 148.875C136.764 149.589 136.764 150.661 137.478 151.018L148.911 162.451C149.447 162.987 150.34 163.165 151.055 162.451L162.487 151.018C163.023 150.482 163.202 149.589 162.487 148.875L151.055 137.442C150.519 136.906 149.625 136.727 148.911 137.442Z" fill="url(#paint0_linear_1469_25)"/>
</g>
<defs>
<filter id="filter0_i_1469_25" x="-0.0078125" y="0" width="301.012" height="303" filterUnits="userSpaceOnUse" color-interpolation-filters="sRGB">
<feFlood flood-opacity="0" result="BackgroundImageFix"/>
<feBlend mode="normal" in="SourceGraphic" in2="BackgroundImageFix" result="shape"/>
<feColorMatrix in="SourceAlpha" type="matrix" values="0 0 0 0 0 0 0 0 0 0 0 0 0 0 0 0 0 0 127 0" result="hardAlpha"/>
<feOffset dx="1" dy="4"/>
<feGaussianBlur stdDeviation="1.5"/>
<feComposite in2="hardAlpha" operator="arithmetic" k2="-1" k3="1"/>
<feColorMatrix type="matrix" values="0 0 0 0 0 0 0 0 0 0 0 0 0 0 0 0 0 0 0.25 0"/>
<feBlend mode="normal" in2="shape" result="effect1_innerShadow_1469_25"/>
</filter>
<linearGradient id="paint0_linear_1469_25" x1="299.907" y1="299.904" x2="0.120703" y2="0.0643984" gradientUnits="userSpaceOnUse">
<stop offset="0.252894" stop-color="#6D54FF"/>
<stop offset="0.502949" stop-color="#6FFFB1"/>
<stop offset="0.825336" stop-color="#06D0FF"/>
</linearGradient>
</defs>
</svg>
